<?xml version="1.0" encoding="iso-8859-1"?>
<!-- Uploaded to: SVG Repo, www.svgrepo.com, Generator: SVG Repo Mixer Tools -->
<svg height="800px" width="800px" version="1.1" id="Layer_1" xmlns="http://www.w3.org/2000/svg" xmlns:xlink="http://www.w3.org/1999/xlink" 
	 viewBox="0 0 512 512" xml:space="preserve">
<path style="fill:#AF7AAE;" d="M460.8,439.242H158.989l-21.558-247.916h344.926L460.8,439.242z"/>
<path style="fill:#8E5B8E;" d="M482.358,169.768v21.558l-1.874,21.558H139.306l-1.874-21.558v-21.558H482.358z"/>
<path style="fill:#D199D1;" d="M503.916,148.211v21.558c0,11.906-9.651,21.558-21.558,21.558H137.432
	c-11.906,0-21.558-9.651-21.558-21.558v-21.558c0-11.906,9.651-21.558,21.558-21.558h344.926
	C494.264,126.653,503.916,136.304,503.916,148.211z"/>
<path style="fill:#A7E5CB;" d="M471.579,428.463L471.579,428.463c0,17.859-14.477,32.337-32.337,32.337h-66.521
	c1.192,3.372,1.847,6.999,1.847,10.779l0,0c0,17.859-14.477,32.337-32.337,32.337H40.421c-17.86,0-32.337-14.478-32.337-32.337l0,0
	c0-17.859,14.477-32.337,32.337-32.337h66.521c-1.192-3.372-1.848-6.999-1.848-10.779l0,0c0-17.859,14.477-32.337,32.337-32.337
	h301.811C457.102,396.126,471.579,410.605,471.579,428.463z M383.222,158.886c4.731,0.46,9.165-0.638,12.905-2.804v45.507
	c0,11.69,9.09,21.645,20.772,22.06c12.264,0.437,22.344-9.377,22.344-21.544v-75.453c0-5.953-4.826-10.779-10.779-10.779h-21.558
	h-10.779h-21.558c-5.953,0-10.779,4.826-10.779,10.779v10.289C363.789,148.116,372.1,157.804,383.222,158.886z"/>
<path style="fill:#D7F3FF;" d="M180.547,428.463c0,5.953-4.826,10.779-10.779,10.779h-32.337c-5.953,0-10.779-4.826-10.779-10.779
	s4.826-10.779,10.779-10.779h32.337C175.722,417.684,180.547,422.51,180.547,428.463z M126.653,460.8H40.421
	c-5.953,0-10.779,4.826-10.779,10.779s4.826,10.779,10.779,10.779h86.232c5.953,0,10.779-4.826,10.779-10.779
	S132.606,460.8,126.653,460.8z"/>
<path style="fill:#A89B80;" d="M353.01,374.568h64.674c47.625,0,86.232,38.607,86.232,86.232v32.337
	c0,5.953-4.826,10.779-10.779,10.779h-204.8c-47.625,0-86.232-38.607-86.232-86.232v-75.453c0-11.906,9.651-21.558,21.558-21.558
	h86.232c11.906,0,21.558,9.651,21.558,21.558v10.779C331.453,364.917,341.104,374.568,353.01,374.568z"/>
<path style="fill:#C1B291;" d="M503.916,460.8v43.116H331.453c-47.625,0-86.232-38.607-86.232-86.232v-75.453
	c0-11.906,9.651-21.558,21.558-21.558h43.116c11.906,0,21.558,9.651,21.558,21.558v10.779c0,11.906,9.651,21.558,21.558,21.558
	h43.116h21.558C465.309,374.568,503.916,413.175,503.916,460.8z"/>
<path style="fill:#A89B80;" d="M503.916,460.8v43.116H374.568c-47.625,0-86.232-38.607-86.232-86.232v-43.116
	c0,47.625,38.607,86.232,86.232,86.232H503.916z"/>
<path style="fill:#DBCBA1;" d="M492.351,417.684H374.568c-47.625,0-86.232-38.607-86.232-86.232v-10.779h21.558
	c11.906,0,21.558,9.651,21.558,21.558v10.779c0,11.906,9.651,21.558,21.558,21.558h64.674
	C449.596,374.568,477.439,391.917,492.351,417.684z"/>
<path style="fill:#91F18B;" d="M288.337,29.642v237.137v21.558h-43.116v-21.558V29.642c0-11.906,9.651-21.558,21.558-21.558
	C278.685,8.084,288.337,17.736,288.337,29.642z"/>
<path style="fill:#6BAF6E;" d="M266.779,29.642v258.695h-21.558V29.642c0-11.906,9.651-21.558,21.558-21.558
	c3.931,0,7.606,1.069,10.779,2.907C271.121,14.721,266.779,21.668,266.779,29.642z"/>
<path style="fill:#FFC248;" d="M342.232,309.895L342.232,309.895c0,11.906-9.651,21.558-21.558,21.558H212.884
	c-11.906,0-21.558-9.651-21.558-21.558l0,0c0-11.906,9.651-21.558,21.558-21.558h21.558v-10.779c0-5.953,4.826-10.779,10.779-10.779
	h43.116c5.953,0,10.779,4.826,10.779,10.779v10.779h21.558C332.58,288.337,342.232,297.988,342.232,309.895z"/>
<path style="fill:#FFFF63;" d="M342.232,309.895H191.326l0,0c0-11.906,9.651-21.558,21.558-21.558h107.789
	C332.58,288.337,342.232,297.988,342.232,309.895L342.232,309.895z"/>
<path d="M220.968,503.916c0,4.466-3.62,8.084-8.084,8.084H40.421C18.132,512,0,493.868,0,471.579
	c0-22.289,18.132-40.421,40.421-40.421h54.271c0.61,0,1.137-0.219,1.568-0.651c0.282-0.284,0.755-0.907,0.751-1.903v-0.141
	c0-22.289,18.132-40.421,40.421-40.421h32.337c4.465,0,8.084,3.618,8.084,8.084c0,4.466-3.62,8.084-8.084,8.084h-32.337
	c-13.373,0-24.253,10.88-24.253,24.253v0.113c0.018,5.039-1.924,9.787-5.467,13.343c-3.474,3.486-8.098,5.407-13.021,5.407H40.421
	c-13.373,0-24.253,10.88-24.253,24.253s10.879,24.253,24.253,24.253h172.463C217.349,495.832,220.968,499.45,220.968,503.916z
	 M363.789,199.411c4.465,0,8.084-3.618,8.084-8.084s-3.62-8.084-8.084-8.084h-43.116c-4.465,0-8.084,3.618-8.084,8.084
	s3.62,8.084,8.084,8.084H363.789z M499.548,413.998C507.467,427.798,512,443.78,512,460.8v32.337
	c0,10.401-8.463,18.863-18.863,18.863h-204.8c-52.006,0-94.316-42.31-94.316-94.316v-75.453c0-2.895,0.424-5.763,1.246-8.511
	c-7.291-5.406-12.025-14.073-12.025-23.826c0-16.344,13.297-29.642,29.642-29.642h13.474v-2.695c0-7.511,4.411-14.009,10.779-17.043
	v-61.105H146.25l14.233,163.679c0.387,4.447-2.905,8.368-7.353,8.754c-4.452,0.406-8.368-2.904-8.755-7.353l-14.438-166.039
	c-12.727-3.33-22.146-14.927-22.146-28.683v-21.558c0-16.344,13.297-29.642,29.642-29.642h99.705V29.642
	C237.137,13.298,250.434,0,266.779,0s29.642,13.298,29.642,29.642v230.873c6.368,3.032,10.779,9.532,10.779,17.043v2.695h13.474
	c16.345,0,29.642,13.298,29.642,29.642c0,9.753-4.734,18.42-12.025,23.826c0.822,2.749,1.246,5.617,1.246,8.511v10.779
	c0,7.43,6.044,13.474,13.474,13.474h64.674c34.691,0,65.067,18.827,81.449,46.799C499.283,413.514,499.422,413.752,499.548,413.998z
	 M253.305,258.695h26.947V29.642c0-7.43-6.044-13.474-13.474-13.474s-13.474,6.044-13.474,13.474V258.695z M237.137,183.242v-48.505
	h-99.705c-7.43,0-13.474,6.044-13.474,13.474v21.558c0,7.409,6.011,13.44,13.412,13.474c0.051,0.001,0.103,0.001,0.155,0H237.137z
	 M495.832,468.884H374.568c-15.993,0-31.796-4.078-45.699-11.793c-3.904-2.165-5.313-7.086-3.146-10.99
	c2.167-3.903,7.086-5.315,10.991-3.147c11.511,6.388,24.601,9.764,37.856,9.764h120.848c-0.991-9.6-3.727-18.692-7.885-26.947
	H374.568c-15.994,0-31.798-4.079-45.704-11.795c-3.904-2.167-5.313-7.087-3.146-10.99c2.165-3.905,7.087-5.312,10.991-3.146
	c11.512,6.388,24.603,9.765,37.859,9.765h102.108c-14.339-16.498-35.469-26.947-58.992-26.947H353.01
	c-16.345,0-29.642-13.298-29.642-29.642v-10.779c0-0.942-0.098-1.878-0.291-2.792c-0.793,0.065-1.595,0.097-2.404,0.097h-10.779
	c-4.465,0-8.084-3.618-8.084-8.084s3.62-8.084,8.084-8.084h10.779c7.43,0,13.474-6.044,13.474-13.474s-6.044-13.474-13.474-13.474
	h-21.558c-4.465,0-8.084-3.618-8.084-8.084V277.56c0-1.486-1.209-2.695-2.695-2.695h-43.116c-1.485,0-2.695,1.208-2.695,2.695
	v10.779c0,4.466-3.62,8.084-8.084,8.084h-21.558c-7.43,0-13.474,6.044-13.474,13.474s6.044,13.474,13.474,13.474h64.674
	c4.465,0,8.084,3.618,8.084,8.084s-3.62,8.084-8.084,8.084h-64.674c-0.808,0-1.611-0.032-2.404-0.097
	c-0.192,0.914-0.291,1.85-0.291,2.792v75.453c0,39.461,29.402,72.186,67.447,77.418c-24.463-17.059-40.5-45.402-40.5-77.42v-53.895
	c0-4.466,3.62-8.084,8.084-8.084c4.465,0,8.084,3.618,8.084,8.084v53.895c0,39.461,29.402,72.186,67.447,77.418
	c-24.463-17.057-40.5-45.4-40.5-77.418v-53.895c0-4.466,3.62-8.084,8.084-8.084s8.084,3.618,8.084,8.084v53.895
	c0,43.091,35.056,78.147,78.147,78.147h118.568c1.485,0,2.695-1.208,2.695-2.695V468.884z M512,148.211v21.558
	c0,13.756-9.42,25.353-22.146,28.682l-14.438,166.04c-0.365,4.209-3.897,7.385-8.044,7.385c-0.235,0-0.472-0.01-0.71-0.03
	c-4.447-0.386-7.74-4.306-7.353-8.754l14.233-163.68h-26.213v2.695c0,8.118-3.217,15.693-9.059,21.33
	c-5.841,5.636-13.546,8.564-21.656,8.292c-16.021-0.57-28.57-13.809-28.57-30.139v-34.637c-1.85,0.169-3.723,0.164-5.602-0.019
	c-15.243-1.484-26.735-14.378-26.735-29.991v-2.204h-35.032c-4.465,0-8.084-3.618-8.084-8.084c0-4.466,3.62-8.084,8.084-8.084
	h36.853c3.032-6.367,9.532-10.779,17.042-10.779h53.895c7.51,0,14.009,4.412,17.042,10.779h36.853
	C498.703,118.568,512,131.866,512,148.211z M431.158,126.653c0-1.486-1.209-2.695-2.695-2.695h-53.895
	c-1.485,0-2.695,1.208-2.695,2.695v10.289c0,7.131,5.329,13.237,12.132,13.899c2.823,0.276,5.614-0.332,8.069-1.754
	c1.253-0.725,2.652-1.089,4.051-1.089c1.394,0,2.787,0.36,4.038,1.08c2.504,1.444,4.046,4.113,4.046,7.004v45.507
	c0,7.455,5.821,13.727,12.975,13.982c3.706,0.106,7.2-1.207,9.854-3.768c2.656-2.563,4.119-6.007,4.119-9.697v-75.454H431.158z
	 M495.832,148.211c0-7.43-6.044-13.474-13.474-13.474h-35.032v48.505h34.938c0.053,0,0.103,0,0.155,0
	c7.402-0.033,13.412-6.064,13.412-13.474V148.211z"/>
</svg>