<?xml version="1.0" encoding="iso-8859-1"?>
<!-- Uploaded to: SVG Repo, www.svgrepo.com, Generator: SVG Repo Mixer Tools -->
<svg height="800px" width="800px" version="1.1" id="Layer_1" xmlns="http://www.w3.org/2000/svg" xmlns:xlink="http://www.w3.org/1999/xlink" 
	 viewBox="0 0 512 512" xml:space="preserve">
<path style="fill:#FFE77C;" d="M396.126,158.989v32.337l-50.81,294.694c-1.783,10.34-10.752,17.895-21.244,17.895H187.928
	c-10.493,0-19.461-7.555-21.244-17.895l-50.81-294.694v-32.337H396.126z"/>
<path style="fill:#F4C064;" d="M256,158.989v32.337v312.589h-68.072c-10.493,0-19.461-7.555-21.244-17.895l-50.81-294.694v-32.337
	H256z"/>
<path style="fill:#CEA05D;" d="M256,266.779c29.765,0,53.895,24.13,53.895,53.895c0,29.765-24.13,53.895-53.895,53.895
	s-53.895-24.13-53.895-53.895C202.105,290.909,226.235,266.779,256,266.779z"/>
<path style="fill:#99774F;" d="M256,266.779v107.789c-29.765,0-53.895-24.13-53.895-53.895
	C202.105,290.909,226.235,266.779,256,266.779z"/>
<path style="fill:#9B9B9B;" d="M368.254,14.399L368.254,14.399c8.418,8.419,8.418,22.069,0,30.487l-68.597,68.597L269.17,82.996
	l68.597-68.597C346.185,5.979,359.836,5.979,368.254,14.399z"/>
<path style="fill:#C1C1C1;" d="M368.254,14.94l-83.751,83.388l-15.332-15.332l68.597-68.597c8.418-8.418,22.069-8.418,30.487,0l0,0
	c0.087,0.087,0.16,0.182,0.245,0.271C368.414,14.757,368.341,14.853,368.254,14.94z"/>
<path style="fill:#84D88B;" d="M417.684,148.211v21.558c0,11.906-9.651,21.558-21.558,21.558H115.874
	c-11.906,0-21.558-9.651-21.558-21.558v-21.558c0-11.906,9.651-21.558,21.558-21.558h10.779v-21.558
	c0-11.906,9.651-21.558,21.558-21.558h215.579c11.906,0,21.558,9.651,21.558,21.558v21.558h10.779
	C408.033,126.653,417.684,136.304,417.684,148.211z"/>
<path style="fill:#91F18B;" d="M256,126.653h140.126c11.906,0,21.558,9.651,21.558,21.558v21.558
	c0,11.906-9.651,21.558-21.558,21.558H256V126.653z"/>
<path style="fill:#6BAF6E;" d="M148.211,83.537H256v43.116H126.653v-21.558C126.653,93.188,136.304,83.537,148.211,83.537z"/>
<path d="M194.021,40.421V8.084c0-4.466,3.62-8.084,8.084-8.084c4.465,0,8.084,3.618,8.084,8.084v32.337
	c0,4.466-3.62,8.084-8.084,8.084C197.641,48.505,194.021,44.887,194.021,40.421z M169.768,48.505c4.465,0,8.084-3.618,8.084-8.084
	V8.084c0-4.466-3.62-8.084-8.084-8.084c-4.465,0-8.084,3.618-8.084,8.084v32.337C161.684,44.887,165.304,48.505,169.768,48.505z
	 M425.768,148.211v21.558c0,13.951-9.688,25.683-22.691,28.819l-49.794,288.808C350.826,501.652,338.54,512,324.072,512H187.928
	c-14.467,0-26.753-10.349-29.211-24.605l-49.794-288.808c-13.003-3.136-22.691-14.867-22.691-28.819v-21.558
	c0-16.344,13.297-29.642,29.642-29.642h2.695v-13.474c0-16.344,13.297-29.642,29.642-29.642H265.28l66.771-66.771
	c11.558-11.556,30.362-11.556,41.92,0c11.558,11.558,11.558,30.364,0,41.923L349.12,75.453h14.669
	c16.345,0,29.642,13.298,29.642,29.642v13.474h2.695C412.471,118.568,425.768,131.866,425.768,148.211z M288.145,75.453h38.11
	l36.283-36.283c5.254-5.254,5.254-13.801,0-19.055c-5.254-5.254-13.801-5.254-19.055,0L288.145,75.453z M386.529,199.411H125.471
	l49.179,285.237c1.117,6.481,6.701,11.184,13.277,11.184h136.146c6.576,0,12.161-4.703,13.277-11.184L386.529,199.411z
	 M409.6,148.211c0-7.43-6.044-13.474-13.474-13.474h-53.895c-4.465,0-8.084-3.618-8.084-8.084c0-4.466,3.62-8.084,8.084-8.084
	h35.032v-13.474c0-7.43-6.044-13.474-13.474-13.474h-34.161c-0.017,0-0.033,0-0.051,0H148.211c-7.43,0-13.474,6.044-13.474,13.474
	v13.474h175.158c4.465,0,8.084,3.618,8.084,8.084c0,4.466-3.62,8.084-8.084,8.084H115.874c-7.43,0-13.474,6.044-13.474,13.474v2.695
	h78.147c4.465,0,8.084,3.618,8.084,8.084c0,4.466-3.62,8.084-8.084,8.084H102.4v2.695c0,7.393,5.986,13.415,13.366,13.474
	c0.087-0.003,0.174-0.002,0.26,0h279.948c0.086-0.002,0.172-0.003,0.261,0c7.38-0.058,13.366-6.08,13.366-13.474V148.211z
	 M194.021,320.674c0-34.176,27.803-61.979,61.979-61.979s61.979,27.803,61.979,61.979S290.176,382.653,256,382.653
	S194.021,354.849,194.021,320.674z M210.189,320.674c0,22.502,16.309,41.266,37.726,45.096v-66.654c0-4.466,3.62-8.084,8.084-8.084
	c4.465,0,8.084,3.618,8.084,8.084v66.654c21.418-3.83,37.726-22.594,37.726-45.096c0-25.26-20.55-45.811-45.811-45.811
	S210.189,295.413,210.189,320.674z"/>
</svg>