<?xml version="1.0" encoding="utf-8"?>
<!-- Uploaded to: SVG Repo, www.svgrepo.com, Generator: SVG Repo Mixer Tools -->
<svg width="800px" height="800px" viewBox="0 0 1024 1024" class="icon"  version="1.1" xmlns="http://www.w3.org/2000/svg"><path d="M607.916553 132.774377c0 15.095141-11.652839 27.331595-26.028188 27.331595H457.871278c-14.37535 0-26.028189-12.236454-26.028188-27.331595 0-15.095141 11.652839-27.331595 26.028188-27.331595h124.017087c14.374326 0 26.028189 12.237477 26.028188 27.331595z" fill="#67DDE0" /><path d="M581.886317 170.150287h-124.012991c-19.895116 0-36.076599-16.765098-36.076599-37.37591s16.181484-37.37591 36.076599-37.37591h124.012991c19.895116 0 36.076599 16.765098 36.076599 37.37591s-16.182508 37.37591-36.076599 37.37591z m-124.012991-54.662166c-8.814629 0-15.985922 7.754907-15.985921 17.285232s7.171293 17.285232 15.985921 17.285232h124.012991c8.814629 0 15.984898-7.754907 15.984897-17.285232s-7.171293-17.285232-15.984897-17.285232h-124.012991z" fill="#4D5152" /><path d="M450.313981 160.105972s17.760315 79.923465-86.901243 263.874702h296.344153s-51.840338-78.070232-75.719391-263.874702H450.313981z" fill="#FFFFFF" /><path d="M659.757915 434.023965H346.136721l8.544323-15.014254c100.679668-176.947862 85.970531-256.026621 85.807733-256.801702l-2.487017-12.075704 12.311197-0.07372h142.563745l1.123202 8.765483c23.220695 180.670709 73.628618 258.842306 74.134417 259.612267l10.261379 15.573296-18.637785 0.014334z m-279.212504-20.090678h261.990753c-15.819028-30.626458-48.834211-107.537652-67.30203-243.784024h-113.835571c1.13856 28.214184-5.00168 105.894316-80.853152 243.784024z" fill="#4D5152" /><path d="M630.387765 919.421377l-238.420913-1.089414c-50.811333 9.770938-50.811333-48.856736-41.039372-70.353209 9.770938-21.496472 37.131201-78.170573 19.542899-173.929448-17.588302-95.758875-14.754188-230.763275-14.754187-230.763274l311.722911-0.326619s2.847425 135.332043-14.740877 231.090917c-17.588302 95.758875 9.770938 152.432976 19.542899 173.929448 9.770938 21.496472 9.770938 80.12517-41.039372 70.353209l-238.420912 1.089414" fill="#FFB957" /><path d="M641.972003 929.473883c-3.575408 0-7.440575-0.338906-11.625194-1.084295l-0.005119 1.074056-118.760459-0.544707-118.755339 0.544707-0.00512-1.074056c-24.613179 4.404755-38.263618-5.399971-45.401123-14.464428-15.514934-19.69853-13.243957-53.371046-5.635465-70.102356l0.731054-1.613643c10.379126-22.739469 34.673877-75.983554 18.074648-166.343482-17.574992-95.666725-15.033708-227.239061-14.921081-232.791591l0.21092-9.825204 331.391749-0.348121 0.21092 9.844658c0.112627 5.566865 2.668245 137.452509-14.906746 233.120258-16.598205 90.359928 7.700642 143.604012 18.074647 166.343482l0.731054 1.608523c7.607468 16.735406 9.878446 50.408946-5.635465 70.107476-5.923177 7.524533-16.33609 15.544627-33.773881 15.548723z m-9.834418-21.194426l0.961428 0.186347c12.493449 2.398963 21.28248 0.127986 26.864703-6.974707 9.897899-12.562049 8.466508-37.621642 3.134113-49.359464l-0.725935-1.58395c-10.197898-22.352441-37.292975-81.73267-19.55109-178.311677 14.494121-78.911866 14.93132-186.478186 14.690707-219.224087l-291.867727 0.309213c-0.235494 32.68242 0.221159 140.042939 14.705041 218.914874 17.741885 96.580031-9.354216 155.959237-19.55109 178.311677l-0.725935 1.58907c-5.331371 11.732702-6.763786 36.792295 3.134113 49.354344 5.586318 7.092454 14.371254 9.368551 26.864703 6.974707l0.961428-0.186347 120.550211 0.548802 120.55533-0.548802z" fill="#4D5152" /><path d="M546.313469 284.770154s34.026781 56.496968 23.754139 107.858128" fill="#67DDE0" /><path d="M579.914314 394.598237l-19.69853-3.944006c9.403363-46.999408-22.185547-100.169773-22.503976-100.700146l17.206393-10.368887c1.471323 2.44299 35.909706 60.459405 24.996113 115.013039z" fill="#4D5152" /></svg>