<?xml version="1.0" encoding="iso-8859-1"?>
<!-- Uploaded to: SVG Repo, www.svgrepo.com, Generator: SVG Repo Mixer Tools -->
<svg height="800px" width="800px" version="1.1" id="Layer_1" xmlns="http://www.w3.org/2000/svg" xmlns:xlink="http://www.w3.org/1999/xlink" 
	 viewBox="0 0 512 512" xml:space="preserve">
<path style="fill:#5B7A7F;" d="M503.916,304.505v10.779c0,8.929-7.239,16.168-16.168,16.168H24.253
	c-8.929,0-16.168-7.239-16.168-16.168v-10.779c0-8.929,7.239-16.168,16.168-16.168h463.495
	C496.677,288.337,503.916,295.576,503.916,304.505z M202.78,155.604l107.38-9.394l-2.819-32.214
	c-1.038-11.86-11.494-20.634-23.355-19.597l-64.428,5.636c-11.861,1.038-20.634,11.494-19.597,23.355L202.78,155.604z"/>
<path style="fill:#769CA5;" d="M436.872,279.703l-11.422,114.224c-4.409,44.082-41.502,77.652-85.804,77.652H172.354
	c-44.301,0-81.395-33.57-85.804-77.652L75.128,279.703C73.859,267.012,83.825,256,96.579,256h318.841
	C428.175,256,438.14,267.012,436.872,279.703z"/>
<path style="fill:#90B5BF;" d="M436.872,279.703l-11.422,114.224c-4.409,44.082-41.502,77.652-85.804,77.652h-68.019
	c-44.301,0-81.395-33.57-85.804-77.652L174.4,279.703C173.131,267.012,183.097,256,195.851,256h219.569
	C428.175,256,438.14,267.012,436.872,279.703z M451.161,150.104c-1.297-14.826-14.367-25.794-29.194-24.496L89.092,154.731
	c-14.826,1.298-25.793,14.367-24.496,29.194l0,0c1.297,14.825,14.367,25.793,29.193,24.496l332.877-29.123
	C441.492,178,452.458,164.93,451.161,150.104z"/>
<path style="fill:#769CA5;" d="M451.161,150.104c1.297,14.826-9.67,27.896-24.496,29.194L93.79,208.421
	c-14.826,1.297-27.896-9.67-29.194-24.496l0,0c-0.52-5.942,0.935-11.6,3.814-16.334c5.16,8.479,14.822,13.777,25.38,12.853
	l332.875-29.123c8.884-0.777,16.378-5.784,20.683-12.859C449.435,141.89,450.789,145.835,451.161,150.104z"/>
<path style="fill:#FFA233;" d="M363.789,245.221c5.953,0,10.779,4.826,10.779,10.779v86.232c0,12.167-10.079,21.98-22.344,21.544
	c-11.682-0.415-20.772-10.372-20.772-22.06v-13.17c-3.739,2.165-8.174,3.264-12.905,2.804
	c-11.122-1.082-19.432-10.769-19.432-21.945V256c0-5.953,4.826-10.779,10.779-10.779h21.558h10.779H363.789z"/>
<path style="fill:#FFC248;" d="M353.01,309.895L353.01,309.895c-11.906,0-21.558-9.651-21.558-21.558v-43.116h32.337
	c5.953,0,10.779,4.826,10.779,10.779v32.337C374.568,300.243,364.917,309.895,353.01,309.895z"/>
<path d="M344.926,83.537V8.084c0-4.466,3.618-8.084,8.084-8.084c4.466,0,8.084,3.618,8.084,8.084v75.453
	c0,4.466-3.618,8.084-8.084,8.084C348.545,91.621,344.926,88.003,344.926,83.537z M385.347,91.621c4.466,0,8.084-3.618,8.084-8.084
	V8.084c0-4.466-3.618-8.084-8.084-8.084s-8.084,3.618-8.084,8.084v75.453C377.263,88.003,380.882,91.621,385.347,91.621z
	 M512,304.505v10.779c0,13.372-10.88,24.253-24.253,24.253H460.8c-4.466,0-8.084-3.618-8.084-8.084c0-4.466,3.618-8.084,8.084-8.084
	h26.947c4.458,0,8.084-3.626,8.084-8.084v-10.779c0-4.458-3.626-8.084-8.084-8.084h-44.423l-9.83,98.31
	c-4.842,48.419-45.189,84.932-93.848,84.932H172.354c-48.66,0-89.006-36.513-93.848-84.932l-9.83-98.31H24.253
	c-4.458,0-8.084,3.626-8.084,8.084v10.779c0,4.458,3.626,8.084,8.084,8.084H51.2c4.466,0,8.084,3.618,8.084,8.084
	c0,4.466-3.618,8.084-8.084,8.084H24.253C10.88,339.537,0,328.657,0,315.284v-10.779c0-13.372,10.88-24.253,24.253-24.253H67.06
	c-0.751-8.232,1.99-16.45,7.541-22.584c5.608-6.198,13.619-9.753,21.978-9.753h170.2c4.466,0,8.084,3.618,8.084,8.084
	s-3.618,8.084-8.084,8.084h-170.2c-3.855,0-7.403,1.575-9.99,4.432c-2.587,2.859-3.801,6.546-3.417,10.382l11.422,114.224
	c4.011,40.118,37.441,70.371,77.759,70.371h167.29c40.319,0,73.748-30.253,77.76-70.371l10.552-105.519
	c0.005-0.055,0.011-0.109,0.017-0.163l0.854-8.542c0.384-3.836-0.83-7.523-3.417-10.382c-2.586-2.857-6.134-4.432-9.99-4.432
	h-32.768v78.147c0,8.117-3.216,15.693-9.059,21.33c-5.84,5.636-13.517,8.565-21.657,8.292c-16.02-0.569-28.569-13.809-28.569-30.139
	v-2.3c-1.846,0.17-3.722,0.164-5.602-0.019c-15.243-1.484-26.735-14.378-26.735-29.991V256c0-10.401,8.463-18.863,18.863-18.863
	h53.895c7.511,0,14.009,4.412,17.043,10.779h34.59c8.359,0,16.37,3.555,21.978,9.753c5.551,6.133,8.292,14.352,7.541,22.584h42.806
	C501.12,280.253,512,291.133,512,304.505z M366.484,256c0-1.486-1.208-2.695-2.695-2.695h-53.895c-1.486,0-2.695,1.208-2.695,2.695
	v53.404c0,7.131,5.329,13.237,12.132,13.899c2.824,0.273,5.614-0.332,8.069-1.754c1.253-0.725,2.653-1.089,4.052-1.089
	c1.394,0,2.787,0.36,4.038,1.08c2.503,1.444,4.046,4.113,4.046,7.004v13.17c0,7.455,5.821,13.727,12.975,13.982
	c3.706,0.121,7.2-1.206,9.854-3.768c2.656-2.563,4.119-6.007,4.119-9.697V256z M450.021,495.832H51.2
	c-4.466,0-8.084,3.618-8.084,8.084S46.734,512,51.2,512h398.821c4.466,0,8.084-3.618,8.084-8.084S454.487,495.832,450.021,495.832z
	 M56.542,184.629c-0.815-9.323,2.048-18.404,8.063-25.572c6.015-7.168,14.461-11.565,23.783-12.381l104.695-9.16l-1.175-13.422
	c-1.424-16.282,10.664-30.688,26.946-32.113l64.427-5.636c16.253-1.416,30.688,10.664,32.113,26.945l1.174,13.423l104.696-9.16
	c19.242-1.687,36.267,12.603,37.952,31.845c1.684,19.244-12.603,36.267-31.845,37.953L94.494,216.474
	c-1.033,0.091-2.061,0.135-3.08,0.135C73.466,216.609,58.137,202.839,56.542,184.629z M72.649,183.219
	c0.439,5.019,2.807,9.567,6.667,12.806c3.86,3.238,8.754,4.779,13.768,4.34l332.877-29.123
	c10.361-0.907,18.054-10.075,17.147-20.436c-0.907-10.361-10.059-18.044-20.436-17.147l-165.969,14.521
	c-4.445,0.39-8.369-2.901-8.758-7.349c-0.388-4.447,2.901-8.369,7.349-8.758l45.166-3.952l-1.175-13.423
	c-0.649-7.402-7.193-12.891-14.597-12.247l-64.427,5.636c-3.585,0.314-6.834,2.004-9.147,4.761c-2.313,2.757-3.414,6.25-3.1,9.836
	l1.174,13.422l13.769-1.205c4.436-0.377,8.369,2.902,8.758,7.349c0.388,4.447-2.901,8.369-7.349,8.758l-21.763,1.905
	c-0.019,0.001-0.039,0.003-0.059,0.005c-0.019,0.001-0.038,0.003-0.058,0.004l-112.691,9.86c-5.019,0.439-9.567,2.807-12.806,6.667
	C73.75,173.31,72.21,178.2,72.649,183.219z"/>
</svg>