<?xml version="1.0" encoding="iso-8859-1"?>
<!-- Uploaded to: SVG Repo, www.svgrepo.com, Generator: SVG Repo Mixer Tools -->
<svg height="800px" width="800px" version="1.1" id="Layer_1" xmlns="http://www.w3.org/2000/svg" xmlns:xlink="http://www.w3.org/1999/xlink" 
	 viewBox="0 0 512 512" xml:space="preserve">
<path style="fill:#769CA5;" d="M339.537,29.642c0-11.906,9.651-21.558,21.558-21.558h37.726c11.906,0,21.558,9.651,21.558,21.558
	v86.232h-80.842V29.642z"/>
<path style="fill:#5B7A7F;" d="M361.095,8.084h21.558c-11.906,0-21.558,9.651-21.558,21.558v86.232h-21.558V29.642
	C339.537,17.736,349.188,8.084,361.095,8.084z"/>
<path style="fill:#C5EAFF;" d="M256,482.358V169.768c0-35.718,28.955-64.674,64.674-64.674h118.568
	c35.718,0,64.674,28.955,64.674,64.674v312.589c0,11.906-9.651,21.558-21.558,21.558h-204.8
	C265.651,503.916,256,494.264,256,482.358z"/>
<path style="fill:#B5E1F4;" d="M256,482.358V169.768c0-35.718,28.955-64.674,64.674-64.674h28.295
	c35.718,0,64.674,28.955,64.674,64.674v312.589c0,11.906-9.651,21.558-21.558,21.558H277.558
	C265.651,503.916,256,494.264,256,482.358z"/>
<path style="fill:#B28D5B;" d="M231.747,191.326h21.558c11.906,0,21.558,9.651,21.558,21.558v129.347h-64.674V212.884
	C210.189,200.978,219.841,191.326,231.747,191.326z"/>
<path style="fill:#99774F;" d="M231.747,191.326h21.558c-11.906,0-21.558,9.651-21.558,21.558v129.347h-21.558V212.884
	C210.189,200.978,219.841,191.326,231.747,191.326z"/>
<path style="fill:#FFA233;" d="M328.758,363.789v118.568c0,11.906-9.651,21.558-21.558,21.558H177.853
	c-11.906,0-21.558-9.651-21.558-21.558V363.789c0-23.812,19.304-43.116,43.116-43.116h86.232
	C309.454,320.674,328.758,339.978,328.758,363.789z"/>
<path style="fill:#FFC248;" d="M242.526,482.358V363.789c0-23.812-19.304-43.116-43.116-43.116h86.232
	c23.812,0,43.116,19.304,43.116,43.116v118.568c0,11.906-9.651,21.558-21.558,21.558h-86.232
	C232.875,503.916,242.526,494.264,242.526,482.358z"/>
<path style="fill:#FF9CAB;" d="M210.189,417.684v64.674c0,11.906-9.651,21.558-21.558,21.558h-75.453
	c-11.906,0-21.558-9.651-21.558-21.558v-64.674c0-11.906,9.651-21.558,21.558-21.558h75.453
	C200.538,396.126,210.189,405.778,210.189,417.684z"/>
<path style="fill:#FC758E;" d="M113.179,396.126h32.337c-11.906,0-21.558,9.651-21.558,21.558v64.674
	c0,11.906,9.651,21.558,21.558,21.558h-32.337c-11.906,0-21.558-9.651-21.558-21.558v-64.674
	C91.621,405.778,101.273,396.126,113.179,396.126z"/>
<path style="fill:#FFC0CF;" d="M113.179,396.126h75.453c11.906,0,21.558,9.651,21.558,21.558v21.558H91.621v-21.558
	C91.621,405.778,101.273,396.126,113.179,396.126z"/>
<path style="fill:#FF9CAB;" d="M113.179,396.126h32.337c-11.906,0-21.558,9.651-21.558,21.558v21.558H91.621v-21.558
	C91.621,405.778,101.273,396.126,113.179,396.126z"/>
<path d="M439.242,97.011h-10.779V29.642C428.463,13.298,415.165,0,398.821,0h-37.726c-16.344,0-29.642,13.298-29.642,29.642v67.368
	h-10.779c-35.683,0-65.858,25.504-71.752,60.642c-0.739,4.404,2.232,8.571,6.636,9.311c4.402,0.735,8.57-2.233,9.311-6.636
	c4.582-27.32,28.052-47.149,55.806-47.149h118.568c31.203,0,56.589,25.387,56.589,56.589v312.589c0,7.43-6.044,13.474-13.474,13.474
	H353.01c-4.466,0-8.084,3.618-8.084,8.084S348.545,512,353.01,512h129.347C498.702,512,512,498.702,512,482.358V169.768
	C512,129.649,479.361,97.011,439.242,97.011z M412.295,97.011h-64.674V29.642c0-7.43,6.044-13.474,13.474-13.474h37.726
	c7.43,0,13.474,6.044,13.474,13.474V97.011z M185.937,388.042h-75.453c-16.345,0-29.642,13.298-29.642,29.642v64.674
	c0,4.848,1.171,9.429,3.242,13.474H45.811c-4.465,0-8.084,3.618-8.084,8.084S41.346,512,45.811,512h140.126
	c16.345,0,29.642-13.298,29.642-29.642v-64.674C215.579,401.34,202.282,388.042,185.937,388.042z M199.411,482.358
	c0,7.43-6.044,13.474-13.474,13.474h-75.453c-7.43,0-13.474-6.044-13.474-13.474v-35.032h83.537c4.465,0,8.084-3.618,8.084-8.084
	c0-4.466-3.62-8.084-8.084-8.084H97.011v-13.474c0-7.43,6.044-13.474,13.474-13.474h75.453c7.43,0,13.474,6.044,13.474,13.474
	V482.358z M288.337,468.884c-4.466,0-8.084-3.618-8.084-8.084v-97.011c0-4.466,3.618-8.084,8.084-8.084s8.084,3.618,8.084,8.084
	V460.8C296.421,465.266,292.803,468.884,288.337,468.884z M26.947,503.916c0,4.466-3.62,8.084-8.084,8.084H8.084
	C3.62,512,0,508.382,0,503.916s3.62-8.084,8.084-8.084h10.779C23.328,495.832,26.947,499.45,26.947,503.916z M285.642,312.589
	h-2.695v-99.705c0-16.344-13.298-29.642-29.642-29.642h-21.558c-16.345,0-29.642,13.298-29.642,29.642v99.705h-2.695
	c-28.231,0-51.2,22.969-51.2,51.2c0,4.466,3.62,8.084,8.084,8.084c4.465,0,8.084-3.618,8.084-8.084
	c0-19.317,15.716-35.032,35.032-35.032h86.232c19.317,0,35.032,15.715,35.032,35.032v118.568c0,7.43-6.044,13.474-13.474,13.474
	h-72.758c-4.465,0-8.084,3.618-8.084,8.084s3.62,8.084,8.084,8.084H307.2c16.344,0,29.642-13.298,29.642-29.642V363.789
	C336.842,335.558,313.873,312.589,285.642,312.589z M266.779,312.589h-48.505v-99.705c0-7.43,6.044-13.474,13.474-13.474h21.558
	c7.43,0,13.474,6.044,13.474,13.474V312.589z M460.8,447.326c-4.466,0-8.084-3.618-8.084-8.084V180.547
	c0-4.466,3.618-8.084,8.084-8.084s8.084,3.618,8.084,8.084v258.695C468.884,443.708,465.266,447.326,460.8,447.326z"/>
</svg>