<?xml version="1.0" encoding="iso-8859-1"?>
<!-- Uploaded to: SVG Repo, www.svgrepo.com, Generator: SVG Repo Mixer Tools -->
<svg height="800px" width="800px" version="1.1" id="Layer_1" xmlns="http://www.w3.org/2000/svg" xmlns:xlink="http://www.w3.org/1999/xlink" 
	 viewBox="0 0 512 512" xml:space="preserve">
<path style="fill:#90B5BF;" d="M256,191.326v129.347H83.537c-11.906,0-21.558-9.651-21.558-21.558V191.326
	c0-35.718,28.955-64.674,64.674-64.674h64.674C227.044,126.653,256,155.608,256,191.326z"/>
<path style="fill:#769CA5;" d="M158.989,320.674H83.537c-11.906,0-21.558-9.651-21.558-21.558V191.326
	c0-35.718,28.955-64.674,64.674-64.674h32.337V320.674z"/>
<path style="fill:#F4C064;" d="M256,331.453c0,11.906-9.651,21.558-21.558,21.558l0,0c-11.906,0-21.558-9.651-21.558-21.558V223.663
	c0-5.953,4.826-10.779,10.779-10.779H256V331.453z"/>
<path style="fill:#EFDDAB;" d="M493.137,503.916H29.642c-5.953,0-10.779-4.826-10.779-10.779V331.453
	c0-5.953,4.826-10.779,10.779-10.779h463.495c5.953,0,10.779,4.826,10.779,10.779v161.684
	C503.916,499.09,499.09,503.916,493.137,503.916z"/>
<path style="fill:#D199D1;" d="M468.075,202.105V256l-33.751,109.69c-5.566,18.091-22.281,30.437-41.209,30.437H277.558V256h28.833
	l19.064-142.975c1.428-10.71,10.564-18.709,21.368-18.709h13.463C419.815,94.316,468.075,142.574,468.075,202.105z"/>
<path style="fill:#AF7AAE;" d="M434.324,365.69c-5.566,18.091-22.281,30.437-41.209,30.437H219.666
	c-18.928,0-35.643-12.345-41.209-30.437l-25.167-81.793c-4.265-13.863,6.1-27.898,20.605-27.898h294.18L434.324,365.69z"/>
<path style="fill:#8E5B8E;" d="M306.39,396.126h-86.724c-18.928,0-35.643-12.345-41.209-30.437l-25.167-81.793
	c-4.265-13.863,6.1-27.898,20.605-27.898h132.496v140.127H306.39z"/>
<path style="fill:#FC758E;" d="M470.019,303.003l-20.839,53.895c-1.606,4.153-5.601,6.892-10.053,6.892H174.395
	c-4.813,0-9.042-3.191-10.364-7.818l-15.399-53.895c-1.967-6.886,3.202-13.74,10.364-13.74h300.97
	C467.539,288.337,472.751,295.94,470.019,303.003z"/>
<path style="fill:#FF9CAB;" d="M470.019,303.003l-20.839,53.895c-1.606,4.153-5.601,6.892-10.053,6.892H306.39v-75.453h153.576
	C467.539,288.337,472.751,295.94,470.019,303.003z"/>
<path style="fill:#F4C064;" d="M202.105,51.2c0,23.812-19.304,43.116-43.116,43.116S115.874,75.012,115.874,51.2
	s19.304-43.116,43.116-43.116S202.105,27.388,202.105,51.2z M158.989,288.337h-53.895v-64.674c0-5.953-4.826-10.779-10.779-10.779
	H61.979v97.011c0,11.906,9.651,21.558,21.558,21.558h75.453c11.906,0,21.558-9.651,21.558-21.558l0,0
	C180.547,297.988,170.896,288.337,158.989,288.337z"/>
<path style="fill:#F4AB53;" d="M158.989,8.084v86.232c-23.812,0-43.116-19.304-43.116-43.116S135.178,8.084,158.989,8.084z"/>
<path style="fill:#91F18B;" d="M105.095,428.463L105.095,428.463v10.779H18.863v-10.779l0,0c0-18.092,11.149-33.572,26.947-39.969
	v-13.925c0-8.929,7.239-16.168,16.168-16.168s16.168,7.239,16.168,16.168v13.925C93.946,394.891,105.095,410.371,105.095,428.463z"
	/>
<path style="fill:#BBFFAB;" d="M105.095,428.463L105.095,428.463v10.779H61.979v-10.779V358.4c8.929,0,16.168,7.239,16.168,16.168
	v13.925C93.946,394.891,105.095,410.371,105.095,428.463z"/>
<path style="fill:#82CEAD;" d="M115.874,439.242v53.895c0,5.953-4.826,10.779-10.779,10.779H18.863
	c-5.953,0-10.779-4.826-10.779-10.779v-53.895c0-5.953,4.826-10.779,10.779-10.779h86.232
	C111.048,428.463,115.874,433.289,115.874,439.242z"/>
<path style="fill:#64AF8F;" d="M72.758,503.916H18.863c-5.953,0-10.779-4.826-10.779-10.779v-53.895
	c0-5.953,4.826-10.779,10.779-10.779h43.116v10.779V460.8v32.337C61.979,499.09,66.805,503.916,72.758,503.916z"/>
<path d="M158.989,102.4c28.231,0,51.2-22.969,51.2-51.2S187.221,0,158.989,0s-51.2,22.969-51.2,51.2S130.758,102.4,158.989,102.4z
	 M158.989,16.168c19.316,0,35.032,15.716,35.032,35.032s-15.716,35.032-35.032,35.032S123.958,70.516,123.958,51.2
	S139.674,16.168,158.989,16.168z M223.663,495.832h-99.897c0.127-0.881,0.192-1.78,0.192-2.695v-53.895
	c0-7.666-4.597-14.279-11.179-17.226c-2.056-16.444-11.898-30.802-26.547-38.649v-8.799c0-13.373-10.879-24.253-24.253-24.253
	s-24.253,10.879-24.253,24.253v8.798c-14.65,7.848-24.492,22.205-26.547,38.649C4.597,424.963,0,431.576,0,439.242v53.895
	C0,503.537,8.463,512,18.863,512h204.8c4.465,0,8.084-3.62,8.084-8.084S228.128,495.832,223.663,495.832z M107.789,493.137
	c0,1.485-1.209,2.695-2.695,2.695H18.863c-1.485,0-2.695-1.209-2.695-2.695v-53.895c0-1.485,1.209-2.695,2.695-2.695H51.2
	c4.465,0,8.084-3.62,8.084-8.084s-3.62-8.084-8.084-8.084H27.88c2.56-10.904,10.23-20.046,20.965-24.392
	c3.053-1.235,5.05-4.199,5.05-7.493v-13.925c0-4.458,3.626-8.084,8.084-8.084s8.084,3.626,8.084,8.084v13.925
	c0,3.293,1.997,6.257,5.05,7.493c10.735,4.347,18.404,13.488,20.965,24.392H83.537c-4.465,0-8.084,3.62-8.084,8.084
	s3.62,8.084,8.084,8.084h21.558c1.485,0,2.695,1.209,2.695,2.695V493.137z M503.916,312.589h-28.935l2.579-6.671
	c2.245-5.804,1.483-12.334-2.035-17.468c-1.827-2.666-4.273-4.773-7.074-6.183l7.296-23.713c0.234-0.703,0.374-1.45,0.405-2.224
	c0.005-0.124,0.008-0.247,0.007-0.37v-53.856c0-63.893-51.98-115.874-115.874-115.874h-13.463
	c-14.795,0-27.427,11.059-29.382,25.725l-18.127,135.959h-35.229v-56.589c0-40.119-32.639-72.758-72.758-72.758h-64.674
	c-40.119,0-72.758,32.639-72.758,72.758v118.568c0,0.908,0.041,1.808,0.122,2.695H8.084c-4.465,0-8.084,3.62-8.084,8.084
	s3.62,8.084,8.084,8.084h52.603c5.441,6.579,13.664,10.779,22.849,10.779h67.39l5.33,18.656c2.079,7.279,8.371,12.575,15.745,13.528
	c7.648,19.585,26.344,32.491,47.663,32.491h173.448c21.291,0,39.964-12.868,47.631-32.407c7.088-0.622,13.383-5.283,15.975-11.99
	l12.009-31.056h35.187c4.465,0,8.084-3.62,8.084-8.084S508.38,312.589,503.916,312.589z M306.277,264.084
	c0.082,0.001,0.164,0.001,0.247,0h89.602c4.465,0,8.084-3.62,8.084-8.084c0-4.465-3.62-8.084-8.084-8.084h-80.503l17.842-133.823
	c0.889-6.666,6.631-11.693,13.356-11.693h13.463c54.978,0,99.705,44.727,99.705,99.705v45.811h-31.527
	c-4.465,0-8.084,3.62-8.084,8.084c0,4.465,3.62,8.084,8.084,8.084h28.666l-4.974,16.168H160.691
	c-0.774-3.741,0.06-7.578,2.366-10.699c2.566-3.476,6.517-5.469,10.838-5.469H306.277z M158.989,323.368h-1.779
	c-0.121-0.003-0.243-0.003-0.363,0H83.537c-7.43,0-13.474-6.044-13.474-13.474V191.326c0-31.204,25.385-56.589,56.589-56.589h64.674
	c31.204,0,56.589,25.385,56.589,56.589v56.589h-26.947v-35.032c0-4.465-3.62-8.084-8.084-8.084c-4.465,0-8.084,3.62-8.084,8.084
	v35.032h-30.905c-9.506,0-18.196,4.385-23.844,12.031c-4.41,5.97-6.374,13.129-5.691,20.305h-31.18v-67.368
	c0-4.465-3.62-8.084-8.084-8.084s-8.084,3.62-8.084,8.084v75.453c0,4.465,3.62,8.084,8.084,8.084h53.895
	c7.43,0,13.474,6.044,13.474,13.474S166.419,323.368,158.989,323.368z M462.479,300.088l-20.839,53.895
	c-0.399,1.03-1.409,1.722-2.514,1.722H245.221c-4.465,0-8.084,3.62-8.084,8.084s3.62,8.084,8.084,8.084H422.66
	c-6.304,9.937-17.29,16.168-29.545,16.168H219.666c-12.255,0-23.242-6.231-29.545-16.168h22.763c4.465,0,8.084-3.62,8.084-8.084
	s-3.62-8.084-8.084-8.084h-38.489c-1.196,0-2.262-0.804-2.591-1.954l-4.408-15.428c12.263-3.633,21.236-15.002,21.236-28.428
	c0-4.848-1.171-9.429-3.242-13.474h272.554c0.123,0.003,0.247,0.003,0.369,0h1.655c1.235,0,1.923,0.734,2.223,1.171
	C462.488,298.029,462.925,298.936,462.479,300.088z M48.505,455.41v21.558c0,4.465-3.62,8.084-8.084,8.084s-8.084-3.62-8.084-8.084
	V455.41c0-4.465,3.62-8.084,8.084-8.084S48.505,450.946,48.505,455.41z"/>
</svg>