<?xml version="1.0" encoding="utf-8"?>
<!-- Uploaded to: SVG Repo, www.svgrepo.com, Generator: SVG Repo Mixer Tools -->
<svg width="800px" height="800px" viewBox="0 0 1024 1024" class="icon"  version="1.1" xmlns="http://www.w3.org/2000/svg"><path d="M768 1002.666667H256a21.333333 21.333333 0 0 1-21.205333-19.050667l-85.333334-789.333333A21.333333 21.333333 0 0 1 170.666667 170.666667h682.666666a21.354667 21.354667 0 0 1 21.205334 23.616l-85.333334 789.333333A21.333333 21.333333 0 0 1 768 1002.666667z" fill="#E6E6E6" /><path d="M896 128H128a21.333333 21.333333 0 0 0-21.333333 21.333333v21.333334a21.333333 21.333333 0 0 0 21.333333 21.333333h768a21.333333 21.333333 0 0 0 21.333333-21.333333V149.333333a21.333333 21.333333 0 0 0-21.333333-21.333333z" fill="#B3B3B3" /><path d="M752.021333 34.752A21.333333 21.333333 0 0 0 732.224 21.333333H291.776a21.333333 21.333333 0 0 0-19.797333 13.418667L234.666667 128h554.666666l-37.312-93.248z" fill="#E6E6E6" /><path d="M512 746.666667c-94.08 0-170.666667-76.586667-170.666667-170.666667s76.586667-170.666667 170.666667-170.666667 170.666667 76.586667 170.666667 170.666667-76.586667 170.666667-170.666667 170.666667z" fill="#4DA34D" /></svg>