<?xml version="1.0" encoding="utf-8"?>
<!-- Uploaded to: SVG Repo, www.svgrepo.com, Generator: SVG Repo Mixer Tools -->
<svg width="800px" height="800px" viewBox="0 0 1024 1024" class="icon"  version="1.1" xmlns="http://www.w3.org/2000/svg"><path d="M512.401363 510.096597m-332.578431 0a332.578431 332.578431 0 1 0 665.156862 0 332.578431 332.578431 0 1 0-665.156862 0Z" fill="#FFFFFF" /><path d="M595.545971 260.662774m-152.431952 0a152.431952 152.431952 0 1 0 304.863903 0 152.431952 152.431952 0 1 0-304.863903 0Z" fill="#ACF0F2" /><path d="M595.544947 426.944822c-91.690979 0-166.289216-74.592094-166.289216-166.289215 0-91.683811 74.598237-166.282048 166.289216-166.282049s166.289216 74.598237 166.289216 166.282049c0 91.698146-74.599261 166.289216-166.289216 166.289215z m0-304.849569c-76.412562 0-138.574688 62.154959-138.574688 138.560354s62.162126 138.574688 138.574688 138.574687 138.574688-62.169293 138.574688-138.574687-62.16315-138.560353-138.574688-138.560354z" fill="#4D5152" /><path d="M456.971283 316.09183m-152.431951 0a152.431952 152.431952 0 1 0 304.863903 0 152.431952 152.431952 0 1 0-304.863903 0Z" fill="#FFFFFF" /><path d="M456.970259 482.374902c-91.690979 0-166.289216-74.592094-166.289215-166.289216s74.598237-166.289216 166.289215-166.289215 166.289216 74.592094 166.289216 166.289215-74.598237 166.289216-166.289216 166.289216z m0-304.863903c-76.412562 0-138.574688 62.169293-138.574687 138.574687s62.162126 138.574688 138.574687 138.574688 138.574688-62.169293 138.574688-138.574688-62.162126-138.574688-138.574688-138.574687z" fill="#4D5152" /><path d="M692.547843 496.239333H332.254883l-27.715551-138.574687h415.723039zM581.688707 911.962372H443.114019L359.969411 496.239333h304.863904z" fill="#FFB957" /><path d="M692.546819 510.08943H332.25386c-6.60406 0-12.294815-4.668917-13.586959-11.137825l-27.714528-138.574687c-0.819108-4.073016 0.236518-8.295519 2.868927-11.502328a13.870574 13.870574 0 0 1 10.718032-5.074376h415.723039c4.154927 0 8.085622 1.867567 10.718031 5.074376a13.831667 13.831667 0 0 1 2.868927 11.502328L706.133777 498.952629a13.860336 13.860336 0 0 1-13.586958 11.136801z m-348.932952-27.714528h337.57192l22.173261-110.859136H321.440607l22.17326 110.859136z" fill="#4D5152" /><path d="M581.687683 925.813493H443.112995c-6.60406 0-12.294815-4.668917-13.586958-11.137825L346.381429 498.952629c-0.819108-4.073016 0.236518-8.295519 2.868927-11.502327a13.870574 13.870574 0 0 1 10.718032-5.074376H664.832291c4.154927 0 8.085622 1.867567 10.718031 5.074376a13.831667 13.831667 0 0 1 2.868927 11.502327l-83.144608 415.723039a13.862383 13.862383 0 0 1-13.586958 11.137825z m-127.213656-27.715552h115.852624l77.603341-388.008511H376.870686l77.603341 388.008511zM443.112995 413.087558h27.714528v27.714528h-27.714528zM498.543075 413.087558h27.714528v27.714528H498.543075zM553.972131 413.087558h27.714528v27.714528h-27.714528z" fill="#4D5152" /><path d="M484.684787 842.668885h55.43008v27.714528h-55.43008z" fill="#4D5152" /></svg>