<?xml version="1.0" encoding="iso-8859-1"?>
<!-- Uploaded to: SVG Repo, www.svgrepo.com, Generator: SVG Repo Mixer Tools -->
<svg height="800px" width="800px" version="1.1" id="Layer_1" xmlns="http://www.w3.org/2000/svg" xmlns:xlink="http://www.w3.org/1999/xlink" 
	 viewBox="0 0 512 512" xml:space="preserve">
<path style="fill:#E5E5E5;" d="M374.568,503.916H29.642c-11.906,0-21.558-9.651-21.558-21.558V29.642
	c0-11.906,9.651-21.558,21.558-21.558h344.926c11.906,0,21.558,9.651,21.558,21.558v452.716
	C396.126,494.264,386.475,503.916,374.568,503.916z"/>
<path style="fill:#F4C064;" d="M245.221,358.4v75.453h-32.337l-49.335-16.445c-9.16-3.054-15.338-11.626-15.338-21.281
	c0-9.656,6.178-18.228,15.338-21.281l49.335-16.445H245.221z"/>
<path style="fill:#828282;" d="M180.547,423.074l-16.998-5.666c-9.16-3.054-15.338-11.626-15.338-21.281
	c0-9.656,6.178-18.228,15.338-21.281l16.998-5.666V423.074z"/>
<path style="fill:#FF8D40;" d="M223.663,347.621H455.41c26.789,0,48.505,21.716,48.505,48.505l0,0
	c0,26.789-21.716,48.505-48.505,48.505H223.663c-5.953,0-10.779-4.826-10.779-10.779V358.4
	C212.884,352.447,217.71,347.621,223.663,347.621z"/>
<path style="fill:#FFC248;" d="M503.916,396.126L503.916,396.126H212.884V358.4c0-5.953,4.826-10.779,10.779-10.779H455.41
	C482.199,347.621,503.916,369.337,503.916,396.126z"/>
<path style="fill:#FFC0CF;" d="M503.916,396.126L503.916,396.126c0,26.789-21.716,48.505-48.505,48.505h-26.947v-97.011h26.947
	C482.199,347.621,503.916,369.337,503.916,396.126z"/>
<path style="fill:#FFD7DF;" d="M455.41,396.126h-26.947v-48.505h26.947c17.95,0,33.612,9.758,42,24.253
	C489.023,386.368,473.361,396.126,455.41,396.126z"/>
<path d="M148.211,323.368H61.979c-4.466,0-8.084-3.62-8.084-8.084c0-4.465,3.618-8.084,8.084-8.084h86.232
	c4.466,0,8.084,3.62,8.084,8.084C156.295,319.749,152.676,323.368,148.211,323.368z M102.939,388.042
	c-4.466,0-8.084,3.62-8.084,8.084c0,4.465,3.618,8.084,8.084,8.084h2.156c4.466,0,8.084-3.62,8.084-8.084
	c0-4.465-3.618-8.084-8.084-8.084H102.939z M396.126,463.495c-4.466,0-8.084,3.62-8.084,8.084v10.779
	c0,7.43-6.044,13.474-13.474,13.474H29.642c-7.43,0-13.474-6.044-13.474-13.474V29.642c0-7.43,6.044-13.474,13.474-13.474h344.926
	c7.43,0,13.474,6.044,13.474,13.474v291.032c0,4.465,3.618,8.084,8.084,8.084c4.466,0,8.084-3.62,8.084-8.084V29.642
	C404.211,13.297,390.913,0,374.568,0H29.642C13.298,0,0,13.297,0,29.642v452.716C0,498.703,13.298,512,29.642,512h344.926
	c16.344,0,29.642-13.297,29.642-29.642v-10.779C404.211,467.114,400.592,463.495,396.126,463.495z M344.192,59.526
	c-4.334-1.082-8.72,1.55-9.805,5.882l-9.072,36.286l-8.192-16.383c-1.997-3.994-6.849-5.613-10.847-3.615
	c-3.993,1.997-5.612,6.852-3.615,10.846l8.649,17.298c2.692,5.384,8.104,8.729,14.123,8.729c7.26,0,13.56-4.918,15.319-11.96
	l9.319-37.279C351.157,64.998,348.524,60.609,344.192,59.526z M344.192,210.431c-4.334-1.08-8.72,1.55-9.805,5.882l-9.072,36.286
	l-8.192-16.383c-1.997-3.994-6.849-5.612-10.847-3.615c-3.993,1.997-5.612,6.852-3.615,10.846l8.649,17.298
	c2.692,5.384,8.104,8.729,14.123,8.729c7.26,0,13.56-4.918,15.319-11.96l9.319-37.279
	C351.157,215.903,348.524,211.514,344.192,210.431z M59.823,388.042c-4.466,0-8.084,3.62-8.084,8.084
	c0,4.465,3.618,8.084,8.084,8.084h2.156c4.466,0,8.084-3.62,8.084-8.084c0-4.465-3.618-8.084-8.084-8.084H59.823z M512,396.126
	c0,31.204-25.387,56.589-56.589,56.589H223.663c-8.242,0-15.264-5.311-17.826-12.69l-44.845-14.948
	c-12.481-4.161-20.866-15.795-20.866-28.951c0-13.156,8.385-24.79,20.866-28.951l44.845-14.948
	c2.562-7.379,9.585-12.69,17.826-12.69H455.41C486.613,339.537,512,364.922,512,396.126z M204.8,369.617l-38.693,12.898
	c-5.868,1.956-9.812,7.427-9.812,13.612c0,6.185,3.943,11.655,9.812,13.612l38.693,12.898V369.617z M420.379,404.211H220.968v29.452
	c0.002,0.095,0.003,0.189,0.002,0.285c0.05,1.442,1.237,2.6,2.693,2.6h196.716V404.211z M420.379,355.705H223.663
	c-1.455,0-2.643,1.158-2.693,2.6c0.001,0.095,0,0.19-0.002,0.285v29.452h199.411V355.705z M495.832,396.126
	c0-22.289-18.132-40.421-40.421-40.421h-18.863v80.842h18.863C477.699,436.547,495.832,418.415,495.832,396.126z M256,80.842H61.979
	c-4.466,0-8.084,3.62-8.084,8.084s3.618,8.084,8.084,8.084H256c4.466,0,8.084-3.62,8.084-8.084S260.466,80.842,256,80.842z
	 M264.084,239.832c0-4.465-3.618-8.084-8.084-8.084H61.979c-4.466,0-8.084,3.62-8.084,8.084c0,4.465,3.618,8.084,8.084,8.084H256
	C260.466,247.916,264.084,244.296,264.084,239.832z M256,156.295H61.979c-4.466,0-8.084,3.62-8.084,8.084
	c0,4.465,3.618,8.084,8.084,8.084H256c4.466,0,8.084-3.62,8.084-8.084C264.084,159.914,260.466,156.295,256,156.295z"/>
</svg>