<?xml version="1.0" encoding="utf-8"?>
<!-- Uploaded to: SVG Repo, www.svgrepo.com, Generator: SVG Repo Mixer Tools -->
<svg width="800px" height="800px" viewBox="0 0 1024 1024" class="icon"  version="1.1" xmlns="http://www.w3.org/2000/svg"><path d="M473.847985 141.348393c-203.829971 0-369.065609 165.237685-369.065609 369.067656s165.236661 369.065609 369.065609 369.065609c105.467356 0 200.351833-44.470411 267.608812-115.404163L587.039532 518.874366l233.840049-133.076423c-51.165597-142.411186-187.006511-244.44955-347.031596-244.44955z" fill="#FFB957" /><path d="M473.850033 888.575808c-208.519366 0-378.158734-169.640392-378.158734-378.158735s169.640392-378.163854 378.158734-378.163853c158.863999 0 301.760507 100.656119 355.585134 250.471019l2.588382 7.192794-232.221287 132.160046 153.117955 243.130786-4.862431 5.124546c-72.300638 76.252836-169.684419 118.243397-274.207753 118.243397z m0-738.135313c-198.488361 0-359.971459 161.483098-359.971459 359.976578 0 198.488361 161.483098 359.971459 359.971459 359.971459 97.144192 0 187.814357-38.115155 256.114675-107.502839L574.279873 515.674724l235.383045-133.957988c-53.164222-138.647383-187.148831-231.276241-335.812885-231.276241z" fill="#4D5152" /><path d="M483.751004 175.2134c-185.126658 0-335.200602 150.074968-335.200602 335.201626s150.073944 335.200602 335.200602 335.200601c95.789592 0 181.967972-40.390228 243.05297-104.814117L586.555234 518.097237l212.382485-120.865567c-46.470059-129.342314-169.846193-222.01827-315.186715-222.01827z" fill="#FFB957" /><path d="M483.752028 854.7108c-189.843698 0-344.293727-154.45003-344.293727-344.293727 0-189.847793 154.45003-344.297823 344.293727-344.297822 144.637113 0 274.736078 91.642856 323.743325 228.038715l2.588382 7.192795-210.765771 119.949189 138.944311 220.63193-4.862432 5.124546C667.578351 816.479946 578.915002 854.7108 483.752028 854.7108z m0-670.404274c-179.816789 0-326.106452 146.292735-326.106452 326.110547s146.28864 326.106452 326.106452 326.106452c87.787928 0 169.733566-34.35852 231.550642-96.917913L573.795575 514.897595 787.717984 393.154559C739.381381 267.917001 618.19329 184.306526 483.752028 184.306526z" fill="#4D5152" /><path d="M397.171261 411.332619m-86.469164 0a86.469163 86.469163 0 1 0 172.938327 0 86.469163 86.469163 0 1 0-172.938327 0Z" fill="#67DDE0" /><path d="M397.171261 503.978882c-51.084711 0-92.646264-41.560529-92.646264-92.646263s41.560529-92.646264 92.646264-92.646264 92.646264 41.560529 92.646263 92.646264-41.561553 92.646264-92.646263 92.646263z m0-172.93935c-44.273825 0-80.293087 36.019262-80.293087 80.293087s36.019262 80.293087 80.293087 80.293087 80.293087-36.019262 80.293087-80.293087-36.019262-80.293087-80.293087-80.293087z" fill="#4D5152" /><path d="M680.332891 273.554514m-86.469164 0a86.469163 86.469163 0 1 0 172.938327 0 86.469163 86.469163 0 1 0-172.938327 0Z" fill="#67DDE0" /><path d="M680.330843 366.201801c-51.084711 0-92.646264-41.560529-92.646264-92.646263s41.560529-92.646264 92.646264-92.646264c51.084711 0 92.646264 41.560529 92.646264 92.646264s-41.561553 92.646264-92.646264 92.646263z m0-172.93935c-44.273825 0-80.293087 36.019262-80.293087 80.293087s36.019262 80.293087 80.293087 80.293087 80.293087-36.019262 80.293087-80.293087-36.019262-80.293087-80.293087-80.293087z" fill="#4D5152" /><path d="M282.907706 605.88926m-34.782408 0a34.782408 34.782408 0 1 0 69.564817 0 34.782408 34.782408 0 1 0-69.564817 0Z" fill="#67DDE0" /><path d="M282.909754 646.848769c-22.587934 0-40.961556-18.373622-40.961556-40.957461 0-22.587934 18.373622-40.961556 40.961556-40.961556 22.582815 0 40.956437 18.373622 40.956437 40.961556 0.001024 22.583839-18.373622 40.957461-40.956437 40.957461z m0-69.565841c-15.776025 0-28.60838 12.832355-28.60838 28.60838 0 15.77193 12.832355 28.604284 28.60838 28.604284 15.77193 0 28.604284-12.832355 28.604284-28.604284 0-15.776025-12.832355-28.60838-28.604284-28.60838z" fill="#4D5152" /><path d="M261.290415 497.802806m-26.330235 0a26.330235 26.330235 0 1 0 52.66047 0 26.330235 26.330235 0 1 0-52.66047 0Z" fill="#F2AD7A" /><path d="M457.311213 524.132017m-26.330235 0a26.330235 26.330235 0 1 0 52.66047 0 26.330235 26.330235 0 1 0-52.66047 0Z" fill="#F2AD7A" /><path d="M515.334795 785.004687m-26.330236 0a26.330235 26.330235 0 1 0 52.660471 0 26.330235 26.330235 0 1 0-52.660471 0Z" fill="#FFFFFF" /><path d="M524.510906 319.630057a33.314157 24.377686 25.177 1 0 60.298484 28.344754 33.314157 24.377686 25.177 1 0-60.298484-28.344754Z" fill="#FFFFFF" /><path d="M312.586124 676.748478a24.584511 24.377686 25.177 1 0 44.49786 20.91729 24.584511 24.377686 25.177 1 0-44.49786-20.91729Z" fill="#FFFFFF" /><path d="M536.29455 676.750702a24.584511 24.377686 25.177 1 0 44.497861 20.91729 24.584511 24.377686 25.177 1 0-44.497861-20.91729Z" fill="#A0CE81" /><path d="M465.111172 675.454077m-50.223623 0a50.223623 50.223623 0 1 0 100.447246 0 50.223623 50.223623 0 1 0-100.447246 0Z" fill="#67DDE0" /><path d="M465.111172 731.852752c-31.099493 0-56.399699-25.300206-56.3997-56.399699s25.300206-56.399699 56.3997-56.399699 56.399699 25.300206 56.399699 56.399699-25.300206 56.399699-56.399699 56.399699z m0-100.447245c-24.288608 0-44.047547 19.758939-44.047547 44.047546s19.758939 44.047547 44.047547 44.047547 44.047547-19.758939 44.047546-44.047547-19.758939-44.047547-44.047546-44.047546z" fill="#4D5152" /><path d="M815.51647 780.700274c62.727311-66.156302 101.455773-155.299854 101.455773-253.66247 0-43.803862-8.029309-85.634697-22.035036-124.617083L661.098181 535.497144l154.418289 245.20313z" fill="#FFB957" /><path d="M814.062553 795.450366L648.338522 532.294431l251.501048-143.126882 3.654247 10.181516c14.98149 41.689539 22.574624 84.648695 22.574623 127.688739 0 96.917913-36.916185 189.221175-103.950981 259.919433l-8.054906 8.493129zM673.860912 538.696786l143.012206 227.08855c58.776137-66.092822 91.007023-150.417969 91.007023-238.748556 0-37.423009-6.042971-74.805062-17.983521-111.286096L673.860912 538.696786z" fill="#4D5152" /><path d="M786.208777 733.080391c50.821572-53.599373 82.199562-125.824244 82.199561-205.517334 0-35.489913-6.505767-69.381541-17.852464-100.964308L661.098181 534.417969l125.110596 198.662422z" fill="#F9E5A8" /><path d="M785.361 741.69229L653.653511 532.547331l199.763098-113.684036 2.135825 5.940583c12.05113 33.550674 18.160654 68.127282 18.160654 102.761227 0 77.988321-29.71008 152.274273-83.654503 209.167485l-4.697585 4.9597z m-116.815077-205.40573l118.470699 188.120498c49.117827-54.229062 76.083895-123.856336 76.083895-196.840929 0-31.361607-5.19929-62.683283-15.460669-93.20121l-179.093925 101.921641z" fill="#4D5152" /><path d="M730.19201 551.871118m-25.607371 0a25.607372 25.607372 0 1 0 51.214743 0 25.607372 25.607372 0 1 0-51.214743 0Z" fill="#67DDE0" /><path d="M762.12085 643.48121a31.512119 25.607372 90 1 0 51.214744 0 31.512119 25.607372 90 1 0-51.214744 0Z" fill="#E8E2DD" /><path d="M804.303902 526.263746m-16.57568 0a16.57568 16.57568 0 1 0 33.151359 0 16.57568 16.57568 0 1 0-33.151359 0Z" fill="#FFFFFF" /></svg>