<?xml version="1.0" encoding="iso-8859-1"?>
<!-- Uploaded to: SVG Repo, www.svgrepo.com, Generator: SVG Repo Mixer Tools -->
<svg height="800px" width="800px" version="1.1" id="Layer_1" xmlns="http://www.w3.org/2000/svg" xmlns:xlink="http://www.w3.org/1999/xlink" 
	 viewBox="0 0 512 512" xml:space="preserve">
<path style="fill:#A7E5CB;" d="M331.453,29.642v452.716c0,11.906-9.651,21.558-21.558,21.558H29.642
	c-11.906,0-21.558-9.651-21.558-21.558V29.642c0-11.906,9.651-21.558,21.558-21.558h280.253
	C321.801,8.084,331.453,17.736,331.453,29.642z"/>
<path style="fill:#C5EAFF;" d="M29.642,29.642h86.232v452.716H29.642V29.642z"/>
<path style="fill:#64AF8F;" d="M331.453,29.642v43.116H8.084V29.642c0-11.906,9.651-21.558,21.558-21.558h280.253
	C321.801,8.084,331.453,17.736,331.453,29.642z M8.084,482.358c0,11.906,9.651,21.558,21.558,21.558h280.253
	c11.906,0,21.558-9.651,21.558-21.558v-75.453H8.084V482.358z"/>
<path style="fill:#93D6BB;" d="M185.937,455.41c0,8.929-7.239,16.168-16.168,16.168S153.6,464.34,153.6,455.41
	c0-8.929,7.239-16.168,16.168-16.168S185.937,446.481,185.937,455.41z"/>
<path style="fill:#FFE954;" d="M503.916,29.642v183.242c0,11.906-9.651,21.558-21.558,21.558h-130.15
	c-5.209,0-9.673,3.725-10.605,8.851l-5.763,31.701c-2.539,13.968-14.706,24.122-28.904,24.122l0,0
	c-16.224,0-29.377-13.152-29.377-29.377v-24.518c0-5.953-4.826-10.779-10.779-10.779h-43.116c-11.906,0-21.558-9.651-21.558-21.558
	V29.642c0-11.906,9.651-21.558,21.558-21.558h258.695C494.264,8.084,503.916,17.736,503.916,29.642z"/>
<path d="M148.211,344.926c4.466,0,8.084,3.62,8.084,8.084c0,4.465-3.618,8.084-8.084,8.084H61.979c-4.466,0-8.084-3.62-8.084-8.084
	c0-4.465,3.618-8.084,8.084-8.084H148.211z M331.453,323.368c-4.466,0-8.084,3.62-8.084,8.084v150.905
	c0,7.43-6.044,13.474-13.474,13.474H29.642c-7.43,0-13.474-6.044-13.474-13.474v-67.368h282.947c4.466,0,8.084-3.62,8.084-8.084
	s-3.618-8.084-8.084-8.084H16.168V80.842h153.6c4.466,0,8.084-3.62,8.084-8.084s-3.618-8.084-8.084-8.084h-153.6V29.642
	c0-7.43,6.044-13.474,13.474-13.474h140.126c4.466,0,8.084-3.62,8.084-8.084S174.234,0,169.768,0H29.642C13.298,0,0,13.297,0,29.642
	v452.716C0,498.703,13.298,512,29.642,512h280.253c16.344,0,29.642-13.297,29.642-29.642V331.453
	C339.537,326.988,335.918,323.368,331.453,323.368z M210.189,320.674c0-4.465-3.618-8.084-8.084-8.084H61.979
	c-4.466,0-8.084,3.62-8.084,8.084s3.618,8.084,8.084,8.084h140.126C206.571,328.758,210.189,325.138,210.189,320.674z
	 M379.958,91.621c4.466,0,8.084-3.62,8.084-8.084V72.758c0-4.465-3.618-8.084-8.084-8.084s-8.084,3.62-8.084,8.084v10.779
	C371.874,88.001,375.492,91.621,379.958,91.621z M512,29.642v183.242c0,16.345-13.298,29.642-29.642,29.642h-130.15
	c-1.303,0-2.418,0.93-2.652,2.212l-5.764,31.701c-3.241,17.825-18.741,30.761-36.858,30.761c-20.656,0-37.461-16.805-37.461-37.461
	v-24.518c0-1.485-1.208-2.695-2.695-2.695h-43.116c-16.344,0-29.642-13.297-29.642-29.642V29.642
	C194.021,13.297,207.319,0,223.663,0h258.695C498.702,0,512,13.297,512,29.642z M495.832,29.642c0-7.43-6.044-13.474-13.474-13.474
	H223.663c-7.43,0-13.474,6.044-13.474,13.474v183.242c0,7.43,6.044,13.474,13.474,13.474h43.116
	c10.401,0,18.863,8.463,18.863,18.863v24.518c0,11.742,9.551,21.293,21.293,21.293c10.297,0,19.109-7.353,20.951-17.485
	l5.764-31.701c1.632-8.975,9.437-15.489,18.559-15.489h130.149c7.43,0,13.474-6.044,13.474-13.474V29.642z M423.074,102.4
	c-4.466,0-8.084,3.62-8.084,8.084c0,34.176-27.803,61.979-61.979,61.979s-61.979-27.803-61.979-61.979
	c0-4.465-3.618-8.084-8.084-8.084s-8.084,3.62-8.084,8.084c0,43.091,35.056,78.147,78.147,78.147s78.147-35.056,78.147-78.147
	C431.158,106.02,427.539,102.4,423.074,102.4z M169.768,431.158c13.372,0,24.253,10.879,24.253,24.253
	c0,13.373-10.88,24.253-24.253,24.253c-13.372,0-24.253-10.879-24.253-24.253C145.516,442.037,156.396,431.158,169.768,431.158z
	 M169.768,447.326c-4.458,0-8.084,3.626-8.084,8.084c0,4.458,3.626,8.084,8.084,8.084s8.084-3.626,8.084-8.084
	C177.853,450.952,174.227,447.326,169.768,447.326z M326.063,91.621c4.466,0,8.084-3.62,8.084-8.084V72.758
	c0-4.465-3.618-8.084-8.084-8.084s-8.084,3.62-8.084,8.084v10.779C317.979,88.001,321.597,91.621,326.063,91.621z"/>
</svg>