<?xml version="1.0" encoding="utf-8"?>
<!-- Uploaded to: SVG Repo, www.svgrepo.com, Generator: SVG Repo Mixer Tools -->
<svg width="800px" height="800px" viewBox="0 0 1024 1024" class="icon"  version="1.1" xmlns="http://www.w3.org/2000/svg"><path d="M509.537556 509.101381m-413.3937 0a413.3937 413.3937 0 1 0 826.7874 0 413.3937 413.3937 0 1 0-826.7874 0Z" fill="#ACF0F2" /><path d="M238.247876 870.820612V496.181996h77.511191v374.637592c0 21.397156-17.358952 38.756107-38.756107 38.756108-21.395108 0-38.755083-17.357928-38.755084-38.755084z" fill="#FFB957" /><path d="M277.00296 922.495081c-28.498824 0-51.674468-23.175644-51.674469-51.674469V496.181996c0-7.140576 5.777785-12.918361 12.918361-12.918362h77.511191c7.140576 0 12.918361 5.777785 12.918361 12.918362v374.637592c0.001024 28.499848-23.173597 51.675492-51.673444 51.675493z m-25.836723-413.3937v361.719231c0 14.243269 11.593454 25.836722 25.836723 25.836722s25.836722-11.593454 25.836722-25.836722V509.101381h-51.673445zM238.247876 95.707681h25.836723v232.533572h-25.836723zM289.922345 95.707681h25.836722v232.533572h-25.836722z" fill="#4D5152" /><path d="M315.759067 379.915721h-77.511191c-28.498824 0-51.674468-23.175644-51.674468-51.674468V95.707681h25.836722v232.533572c0 14.243269 11.593454 25.836722 25.836722 25.836722h77.511191c14.243269 0 25.836722-11.593454 25.836722-25.836722V95.707681h25.836723v232.533572c0.002048 28.498824-23.173597 51.674468-51.672421 51.674468z" fill="#4D5152" /><path d="M264.084599 366.99736h25.836722v129.18566h-25.836722z" fill="#4D5152" /><path d="M625.80383 754.553314c0 78.482858-53.402787 155.022381-103.348937 155.022382S419.10698 833.036172 419.10698 754.553314s25.836722-129.185659 103.347913-129.185659c77.512215 0 103.348937 50.702801 103.348937 129.185659z" fill="#FFFFFF" /><path d="M561.211 147.381125v374.637593h-77.51119V147.381125c0-21.396132 17.359976-38.756107 38.756107-38.756107 21.397156 0.001024 38.755083 17.361 38.755083 38.756107z" fill="#FFB957" /><path d="M561.211 534.938103h-77.51119c-7.140576 0-12.918361-5.777785-12.918362-12.918361V147.381125c0-28.498824 23.175644-51.674468 51.674469-51.674468s51.674468 23.175644 51.674468 51.674468v374.637593c0 7.1416-5.778809 12.919385-12.919385 12.919385z m-64.591805-25.836722h51.674468V147.381125c0-14.243269-11.593454-25.836722-25.836722-25.836722-14.243269 0-25.836722 11.593454-25.836722 25.836722v361.720256z" fill="#4D5152" /><path d="M509.537556 522.019742h25.836722v103.348937h-25.836722z" fill="#4D5152" /><path d="M522.455917 922.495081c-58.675796 0-116.267298-83.188635-116.267298-167.940743 0-95.627818 38.036316-142.10402 116.267298-142.10402S638.723215 658.925496 638.723215 754.553314c0 84.753132-57.591502 167.941767-116.267298 167.941767z m0-284.209065c-62.536868 0-90.429552 35.854416-90.429552 116.267298 0 75.202329 50.563553 142.10402 90.429552 142.10402s90.429552-66.901691 90.429552-142.10402c0-80.412882-27.893708-116.267298-90.429552-116.267298z" fill="#4D5152" /><path d="M677.478298 250.730062c0-78.482858 63.621162-142.10402 142.104021-142.10402v762.19457c0 21.397156-17.358952 38.756107-38.756108 38.756107-21.396132 0-38.756107-17.358952-38.756107-38.756107V560.774825l-64.592829-64.592829V250.730062z" fill="#FFFFFF" /><path d="M742.071128 870.820612c0 21.397156 17.359976 38.756107 38.756107 38.756107 21.397156 0 38.756107-17.358952 38.756108-38.756107V560.774825h-77.511191v310.045787z" fill="#FFB957" /><path d="M780.827235 922.495081c-28.498824 0-51.674468-23.175644-51.674468-51.674469V566.124626l-60.80855-60.807526a12.908122 12.908122 0 0 1-3.78428-9.13408V250.730062c0-85.484186 69.538196-155.022381 155.022382-155.022381 7.140576 0 12.918361 5.777785 12.918361 12.918361v762.19457c0 28.498824-23.17462 51.674468-51.673445 51.674469zM690.39666 490.833219l60.807525 60.807525a12.908122 12.908122 0 0 1 3.78428 9.134081v310.044763c0 14.243269 11.593454 25.836722 25.836723 25.836722 14.243269 0 25.836722-11.593454 25.836722-25.836722V122.187403c-65.185659 6.497576-116.267298 61.665541-116.267298 128.541635V490.833219z" fill="#4D5152" /><path d="M690.39666 392.834083h25.836722v25.836722h-25.836722zM690.39666 444.508551h25.836722v25.836722h-25.836722zM690.39666 341.159614h25.836722v25.836722h-25.836722zM690.39666 289.485146h25.836722v25.836722h-25.836722zM690.39666 237.811701h25.836722v25.836722h-25.836722z" fill="#4D5152" /></svg>