<?xml version="1.0" encoding="iso-8859-1"?>
<!-- Uploaded to: SVG Repo, www.svgrepo.com, Generator: SVG Repo Mixer Tools -->
<svg height="800px" width="800px" version="1.1" id="Layer_1" xmlns="http://www.w3.org/2000/svg" xmlns:xlink="http://www.w3.org/1999/xlink" 
	 viewBox="0 0 512 512" xml:space="preserve">
<path style="fill:#DBCBA1;" d="M8.084,322.811c0-112.928,91.546-204.473,204.473-204.473s204.473,91.546,204.473,204.473
	c0,78.639-44.401,146.897-109.493,181.105H117.577C52.485,469.708,8.084,401.45,8.084,322.811z"/>
<path style="fill:#A89B80;" d="M212.558,456.274c-73.71,0-133.463-59.753-133.463-133.463s59.753-133.463,133.463-133.463
	S346.02,249.101,346.02,322.811S286.267,456.274,212.558,456.274z"/>
<path style="fill:#A7E5CB;" d="M450.021,35.032c0-14.882,12.065-26.947,26.947-26.947c14.882,0,26.947,12.065,26.947,26.947
	s-12.065,26.947-26.947,26.947C462.086,61.979,450.021,49.914,450.021,35.032z M428.463,406.905L428.463,406.905
	c-7.667,0-14.955,1.611-21.558,4.497v-4.497c0-29.765-24.13-53.895-53.895-53.895l0,0c-29.765,0-53.895,24.13-53.895,53.895v10.779
	c-9.008-6.767-20.203-10.779-32.337-10.779l0,0c-29.765,0-53.895,24.13-53.895,53.895v43.116h86.232h21.558h53.895h32.337h75.453
	V460.8C482.358,431.035,458.228,406.905,428.463,406.905z M476.968,299.116c-14.883,0-26.947,12.065-26.947,26.947
	s12.065,26.947,26.947,26.947c14.882,0,26.947-12.065,26.947-26.947S491.851,299.116,476.968,299.116z M406.905,234.442
	c29.765,0,53.895-24.13,53.895-53.895s-24.13-53.895-53.895-53.895c-29.765,0-53.895,24.13-53.895,53.895
	S377.14,234.442,406.905,234.442z"/>
<path style="fill:#D7F3FF;" d="M266.779,428.104c-11.906,0-21.558,9.651-21.558,21.558c0,11.906,9.651,21.558,21.558,21.558
	c11.906,0,21.558-9.651,21.558-21.558C288.337,437.756,278.685,428.104,266.779,428.104z M363.789,374.209
	c-11.906,0-21.558,9.651-21.558,21.558c0,11.906,9.651,21.558,21.558,21.558s21.558-9.651,21.558-21.558
	C385.347,383.861,375.696,374.209,363.789,374.209z M439.242,169.768c0-11.906-9.651-21.558-21.558-21.558
	c-11.906,0-21.558,9.651-21.558,21.558s9.651,21.558,21.558,21.558C429.591,191.326,439.242,181.675,439.242,169.768z
	 M439.242,428.104c-11.906,0-21.558,9.651-21.558,21.558c0,11.906,9.651,21.558,21.558,21.558c11.906,0,21.558-9.651,21.558-21.558
	C460.8,437.756,451.148,428.104,439.242,428.104z"/>
<path d="M441.937,35.032C441.937,15.715,457.651,0,476.968,0C496.285,0,512,15.715,512,35.032s-15.715,35.032-35.032,35.032
	C457.651,70.063,441.937,54.349,441.937,35.032z M458.105,35.032c0,10.401,8.463,18.863,18.863,18.863
	c10.401,0,18.863-8.463,18.863-18.863s-8.463-18.863-18.863-18.863C466.568,16.168,458.105,24.63,458.105,35.032z M87.179,322.809
	c0-4.466-3.62-8.084-8.084-8.084s-8.084,3.618-8.084,8.084c0,32.298,10.594,62.711,30.636,87.953
	c19.442,24.485,46.776,42.064,76.969,49.496c0.649,0.16,1.299,0.237,1.938,0.237c3.634,0,6.936-2.467,7.844-6.154
	c1.067-4.335-1.582-8.716-5.918-9.782C126.368,430.746,87.179,380.68,87.179,322.809z M512,326.062
	c0,19.317-15.715,35.032-35.032,35.032c-19.317,0-35.032-15.715-35.032-35.032c0-19.317,15.715-35.032,35.032-35.032
	C496.285,291.03,512,306.745,512,326.062z M495.832,326.062c0-10.401-8.463-18.863-18.863-18.863
	c-10.401,0-18.863,8.463-18.863,18.863c0,10.401,8.463,18.863,18.863,18.863C487.369,344.925,495.832,336.463,495.832,326.062z
	 M512,503.914c0,4.466-3.618,8.084-8.084,8.084H117.734c-0.054,0.001-0.109,0.002-0.163,0.002c-0.054,0-0.109-0.001-0.163-0.002
	H8.084c-4.465,0-8.084-3.618-8.084-8.084s3.62-8.084,8.084-8.084h80.954C33.5,456.237,0,392.246,0,322.809
	c0-117.204,95.353-212.555,212.558-212.555c50.081,0,97.899,17.394,136.052,49.235c8.639-23.841,31.51-40.92,58.296-40.92
	c34.176,0,61.979,27.803,61.979,61.979s-27.803,61.979-61.979,61.979s-61.979-27.803-61.979-61.979c0-0.924,0.021-1.846,0.061-2.76
	c-36.271-33.152-83.162-51.365-132.43-51.365c-108.29,0-196.389,88.1-196.389,196.387c0,72.547,39.574,138.657,103.425,173.02H204.8
	v-35.032c0-34.176,27.803-61.979,61.979-61.979c8.49,0,16.715,1.687,24.331,4.946c1.638-32.724,28.775-58.841,61.9-58.841
	c31.968,0,58.362,24.328,61.637,55.443c4.505-1.029,9.122-1.549,13.815-1.549c34.176,0,61.979,27.803,61.979,61.979v35.032h13.474
	C508.382,495.829,512,499.449,512,503.914z M361.095,180.546c0,25.259,20.55,45.811,45.811,45.811s45.811-20.55,45.811-45.811
	s-20.55-45.811-45.811-45.811S361.095,155.287,361.095,180.546z M474.274,460.798c0-25.259-20.55-45.811-45.811-45.811
	c-6.355,0-12.519,1.285-18.321,3.821c-2.499,1.094-5.381,0.849-7.663-0.645c-2.282-1.493-3.658-4.037-3.658-6.764v-4.497
	c0-25.259-20.55-45.811-45.811-45.811c-25.26,0-45.811,20.55-45.811,45.811v10.778c0,3.063-1.731,5.863-4.471,7.233
	c-2.739,1.367-6.019,1.071-8.468-0.77c-7.974-5.991-17.478-9.157-27.481-9.157c-25.26,0-45.811,20.55-45.811,45.811v35.032h253.305
	v-35.032H474.274z M212.558,213.599c-4.465,0-8.084,3.618-8.084,8.084c0,4.466,3.62,8.084,8.084,8.084
	c51.303,0,93.043,41.738,93.043,93.042c0,4.466,3.618,8.084,8.084,8.084s8.084-3.618,8.084-8.084
	C321.769,262.59,272.776,213.599,212.558,213.599z M346.021,330.893c4.466,0,8.084-3.618,8.084-8.084
	c0-78.049-63.498-141.547-141.548-141.547c-64.155,0-120.423,43.261-136.835,105.201c-1.144,4.316,1.428,8.742,5.744,9.885
	c4.317,1.139,8.742-1.428,9.885-5.744c14.535-54.859,64.377-93.174,121.206-93.174c69.134,0,125.38,56.243,125.38,125.379
	C337.937,327.275,341.556,330.893,346.021,330.893z M413.631,361.006c0.402,0.06,0.8,0.088,1.194,0.088
	c3.941,0,7.391-2.887,7.986-6.901c1.527-10.318,2.302-20.877,2.302-31.384c0-19.788-2.717-39.383-8.08-58.242
	c-1.22-4.294-5.689-6.789-9.987-5.565c-4.294,1.221-6.786,5.691-5.565,9.987c4.952,17.42,7.463,35.529,7.463,53.82
	c0,9.718-0.716,19.48-2.128,29.016C406.165,356.242,409.215,360.352,413.631,361.006z"/>
</svg>